<?xml version="1.0" encoding="utf-8"?>
<!DOCTYPE svg PUBLIC "-//W3C//DTD SVG 1.1//EN" "http://www.w3.org/Graphics/SVG/1.1/DTD/svg11.dtd">
<!-- exported from Silhouette Studio® Business Edition V4.2.471ssbe -->
<svg version="1.1" xmlns="http://www.w3.org/2000/svg" xmlns:xlink="http://www.w3.org/1999/xlink" width="38mm" height="38mm" viewBox="0 0 38 38">
<defs/>
<path d="M 11.12817 27.07721 C 11.49533 27.54474 14.18814 28.16855 18.48764 28.16855 C 22.78668 28.16855 25.47943 27.54474 25.84616 27.07721 L 25.84616 18.94864 L 18.55368 21.51093 C 18.51257 21.52612 18.46887 21.52612 18.42856 21.51093 L 11.12817 18.94864 L 11.12817 27.07721 L 11.12817 27.07721 Z M 18.48764 28.96429 C 17.16824 28.96429 10.58719 28.87677 10.58719 27.1524 L 10.58716 18.44498 C 10.58716 18.32315 10.62546 18.20807 10.69031 18.13275 C 10.75519 18.05627 10.84088 18.02695 10.92026 18.05807 L 18.49088 20.71515 L 26.05408 18.05807 C 26.13559 18.02753 26.21918 18.05627 26.28403 18.13275 C 26.34888 18.20807 26.38721 18.32315 26.38721 18.44498 L 26.38721 27.1524 C 26.38721 28.87677 19.80698 28.96429 18.48764 28.96429 L 18.48764 28.96429 Z" fill="#000000" fill-opacity="1" stroke="none" stroke-opacity="1" stroke-width="0.3527777" stroke-linecap="butt" stroke-linejoin="miter"/>
<path d="M 34.21852 20.72055 C 34.07173 20.72055 33.95113 20.54669 33.94865 20.33008 L 33.89207 16.01974 L 18.24763 16.25055 C 18.24641 16.25055 18.24556 16.25055 18.24474 16.25055 C 18.09669 16.25055 17.97612 16.07477 17.97447 15.85632 C 17.97319 15.63651 18.09297 15.45663 18.24181 15.45425 L 34.1545 15.21982 C 34.15572 15.21982 34.15657 15.21982 34.15736 15.21982 C 34.30415 15.21982 34.42473 15.39294 34.42726 15.61032 L 34.48878 20.31412 C 34.49168 20.53452 34.37279 20.71564 34.22392 20.72 C 34.22182 20.72055 34.22017 20.72055 34.21852 20.72055 L 34.21852 20.72055 Z" fill="#000000" fill-opacity="1" stroke="none" stroke-opacity="1" stroke-width="0.3527777" stroke-linecap="butt" stroke-linejoin="miter"/>
<path d="M 33.59152 23.45111 C 34.04059 23.78595 34.45432 23.78781 34.87057 23.45972 L 34.66971 22.17245 C 34.41397 22.40747 34.04474 22.40689 33.79071 22.17245 L 33.59152 23.45111 L 33.59152 23.45111 Z M 34.24722 24.4989 C 33.88263 24.4989 33.50958 24.32761 33.14035 23.98849 C 33.04224 23.89914 32.99399 23.72769 33.01938 23.56186 L 33.41019 21.05353 C 33.44101 20.85654 33.57153 20.72537 33.70419 20.7475 C 33.84058 20.77072 33.94412 20.94031 33.94412 21.14285 C 33.94412 21.37427 34.07263 21.56277 34.23062 21.56277 C 34.38779 21.56277 34.51627 21.37427 34.51627 21.14285 C 34.51627 20.94031 34.61981 20.77072 34.7562 20.7475 C 34.89429 20.72235 35.01938 20.85654 35.0502 21.05423 L 35.44104 23.56186 C 35.46561 23.72354 35.42111 23.88995 35.32751 23.98175 C 34.97867 24.3252 34.61526 24.4989 34.24722 24.4989 L 34.24722 24.4989 Z" fill="#000000" fill-opacity="1" stroke="none" stroke-opacity="1" stroke-width="0.3527777" stroke-linecap="butt" stroke-linejoin="miter"/>
<path d="M 34.23061 20.72055 C 34.07262 20.72055 33.94411 20.90979 33.94411 21.14288 C 33.94411 21.3743 34.07262 21.56281 34.23061 21.56281 C 34.38777 21.56281 34.51625 21.3743 34.51625 21.14288 C 34.51625 20.90979 34.38777 20.72055 34.23061 20.72055 L 34.23061 20.72055 Z M 34.23061 22.35858 C 33.77446 22.35858 33.40318 21.81314 33.40318 21.14288 C 33.40318 20.47095 33.77446 19.92422 34.23061 19.92422 C 34.68596 19.92422 35.05721 20.47095 35.05721 21.14288 C 35.05721 21.81314 34.68596 22.35858 34.23061 22.35858 L 34.23061 22.35858 Z" fill="#000000" fill-opacity="1" stroke="none" stroke-opacity="1" stroke-width="0.3527777" stroke-linecap="butt" stroke-linejoin="miter"/>
<path d="M 3.98793 15.61823 L 18.49089 20.71515 L 32.99608 15.61823 L 18.49089 10.52576 L 3.98793 15.61823 L 3.98793 15.61823 Z M 18.49089 21.52182 C 18.46971 21.52182 18.44853 21.51819 18.42815 21.51093 L 2.760422 16.00455 C 2.638992 15.96225 2.552963 15.80185 2.552963 15.61823 C 2.552963 15.43405 2.638992 15.27365 2.760818 15.23148 L 18.42857 9.730042 C 18.46889 9.714691 18.51299 9.714691 18.5533 9.730042 L 34.22316 15.23148 C 34.34499 15.27365 34.43102 15.43405 34.43102 15.61823 C 34.43102 15.80185 34.34496 15.96225 34.22356 16.00455 L 18.5537 21.51093 C 18.53334 21.51819 18.51213 21.52182 18.49089 21.52182 L 18.49089 21.52182 Z" fill="#000000" fill-opacity="1" stroke="none" stroke-opacity="1" stroke-width="0.3527777" stroke-linecap="butt" stroke-linejoin="miter"/>
</svg>