<?xml version="1.0" encoding="utf-8"?>
<!DOCTYPE svg PUBLIC "-//W3C//DTD SVG 1.1//EN" "http://www.w3.org/Graphics/SVG/1.1/DTD/svg11.dtd">
<!-- exported from Silhouette Studio® Business Edition V4.2.471ssbe -->
<svg version="1.1" xmlns="http://www.w3.org/2000/svg" xmlns:xlink="http://www.w3.org/1999/xlink" width="38mm" height="38mm" viewBox="0 0 38 38">
<defs/>
<path d="M 26.16484 12.29338 L 12.70527 12.29338 C 12.55028 12.29338 12.42448 12.16763 12.42448 12.01257 C 12.42448 11.85843 12.55028 11.73259 12.70527 11.73259 L 26.16484 11.73259 C 26.31984 11.73259 26.44562 11.85843 26.44562 12.01257 C 26.44562 12.16763 26.31984 12.29338 26.16484 12.29338 L 26.16484 12.29338 Z" fill="#000000" fill-opacity="1" stroke="none" stroke-opacity="1" stroke-width="0.3527777" stroke-linecap="butt" stroke-linejoin="miter"/>
<path d="M 26.16486 16.45218 L 12.70528 16.45218 C 12.55029 16.45218 12.42449 16.32652 12.42449 16.17183 C 12.42449 16.01643 12.55029 15.89148 12.70528 15.89148 L 26.16486 15.89148 C 26.31985 15.89148 26.44563 16.01643 26.44563 16.17183 C 26.44563 16.32652 26.31985 16.45218 26.16486 16.45218 L 26.16486 16.45218 Z" fill="#000000" fill-opacity="1" stroke="none" stroke-opacity="1" stroke-width="0.3527777" stroke-linecap="butt" stroke-linejoin="miter"/>
<path d="M 3.413143 4.500786 C 2.892754 4.500786 2.469303 4.925011 2.469303 5.447304 L 2.469299 28.40353 C 2.469299 28.92437 2.89275 29.34698 3.413139 29.34698 L 34.58803 29.34698 C 35.10802 29.34698 35.53071 28.92437 35.53071 28.40353 L 35.53069 5.447304 C 35.53069 4.925011 35.10801 4.500786 34.58802 4.500786 L 3.413143 4.500786 L 3.413143 4.500786 Z M 34.58803 29.90823 L 3.413139 29.90819 C 2.583527 29.90819 1.908146 29.23321 1.908146 28.40353 L 1.908154 5.447304 C 1.908154 4.616173 2.583538 3.939552 3.413143 3.939552 L 34.58802 3.939552 C 35.41724 3.939552 36.09186 4.616173 36.09186 5.447304 L 36.09187 28.40353 C 36.09187 29.23321 35.41724 29.90823 34.58803 29.90823 L 34.58803 29.90823 Z" fill="#000000" fill-opacity="1" stroke="none" stroke-opacity="1" stroke-width="0.3527777" stroke-linecap="butt" stroke-linejoin="miter"/>
<path d="M 15.24731 33.49937 L 22.75384 33.49937 L 22.18498 29.90822 L 15.81655 29.90822 L 15.24731 33.49937 L 15.24731 33.49937 Z M 23.08344 34.06044 C 23.08305 34.06044 23.08268 34.06044 23.08268 34.06044 L 14.91885 34.06044 C 14.83693 34.06044 14.75886 34.0244 14.7058 33.96199 C 14.65233 33.89961 14.62925 33.81706 14.64156 33.73592 L 15.30003 29.5844 C 15.32156 29.44774 15.43885 29.34697 15.57694 29.34697 L 22.42423 29.34697 C 22.56192 29.34697 22.67999 29.44774 22.70115 29.5844 L 23.35498 33.70781 C 23.36115 33.73088 23.36421 33.75502 23.36421 33.78011 C 23.36421 33.93477 23.23844 34.06044 23.08344 34.06044 L 23.08344 34.06044 Z" fill="#000000" fill-opacity="1" stroke="none" stroke-opacity="1" stroke-width="0.3527777" stroke-linecap="butt" stroke-linejoin="miter"/>
<path d="M 28.19343 34.06044 L 9.807728 34.06044 C 9.652725 34.06044 9.526958 33.93477 9.526958 33.78011 C 9.526958 33.62468 9.652725 33.49937 9.807728 33.49937 L 28.19343 33.49937 C 28.34843 33.49937 28.4742 33.62468 28.4742 33.78011 C 28.4742 33.93477 28.34843 34.06044 28.19343 34.06044 L 28.19343 34.06044 Z" fill="#000000" fill-opacity="1" stroke="none" stroke-opacity="1" stroke-width="0.3527777" stroke-linecap="butt" stroke-linejoin="miter"/>
<path d="M 19.00153 26.07437 C 18.48384 26.07437 18.06269 26.49588 18.06269 27.01547 C 18.06269 27.53238 18.48384 27.95316 19.00153 27.95316 C 19.51884 27.95316 19.93961 27.53238 19.93961 27.01547 C 19.93961 26.49588 19.51884 26.07437 19.00153 26.07437 L 19.00153 26.07437 Z M 19.00153 28.5144 C 18.17461 28.5144 17.50193 27.84192 17.50193 27.01547 C 17.50193 26.18704 18.17461 25.51349 19.00153 25.51349 C 19.82807 25.51349 20.50077 26.18704 20.50077 27.01547 C 20.50077 27.84192 19.82807 28.5144 19.00153 28.5144 L 19.00153 28.5144 Z" fill="#000000" fill-opacity="1" stroke="none" stroke-opacity="1" stroke-width="0.3527777" stroke-linecap="butt" stroke-linejoin="miter"/>
<path d="M 2.470448 24.68 L 2.469296 28.40351 C 2.469296 28.92436 2.892746 29.34697 3.413136 29.34697 L 34.58802 29.34697 C 35.10802 29.34697 35.5307 28.92436 35.5307 28.40351 L 35.5307 24.68 L 2.470448 24.68 L 2.470448 24.68 Z M 34.58802 29.90821 L 3.413136 29.90821 C 2.583523 29.90821 1.908142 29.2332 1.908142 28.40351 L 1.909676 24.39964 C 1.909676 24.24461 2.035446 24.11931 2.190449 24.11931 L 35.81108 24.11931 C 35.96608 24.11931 36.09186 24.24461 36.09186 24.39964 L 36.09186 28.40351 C 36.09186 29.2332 35.41723 29.90821 34.58802 29.90821 L 34.58802 29.90821 Z" fill="#000000" fill-opacity="1" stroke="none" stroke-opacity="1" stroke-width="0.3527777" stroke-linecap="butt" stroke-linejoin="miter"/>
</svg>