<?xml version="1.0" encoding="utf-8"?>
<!DOCTYPE svg PUBLIC "-//W3C//DTD SVG 1.1//EN" "http://www.w3.org/Graphics/SVG/1.1/DTD/svg11.dtd">
<!-- exported from Silhouette Studio® Business Edition V4.2.471ssbe -->
<svg version="1.1" xmlns="http://www.w3.org/2000/svg" xmlns:xlink="http://www.w3.org/1999/xlink" width="38mm" height="38mm" viewBox="0 0 38 38">
<defs/>
<path d="M 2.195339 32.43584 L 35.80463 32.43584 L 35.80463 5.564041 L 2.195351 5.564041 L 2.195339 32.43584 L 2.195339 32.43584 Z M 36.09005 33.00626 L 1.910328 33.00626 C 1.752766 33.00626 1.625313 32.87844 1.625313 32.72092 L 1.625324 5.279053 C 1.625324 5.121109 1.752769 4.993637 1.910332 4.993637 L 36.09005 4.993637 C 36.24683 4.993637 36.37469 5.121109 36.37469 5.279053 L 36.37469 32.72092 C 36.37469 32.87844 36.24683 33.00626 36.09005 33.00626 L 36.09005 33.00626 Z" fill="#000000" fill-opacity="1" stroke="none" stroke-opacity="1" stroke-width="0.3527777" stroke-linecap="butt" stroke-linejoin="miter"/>
<path d="M 2.195339 11.63393 L 35.80464 11.63393 L 35.80464 5.564102 L 2.195339 5.564102 L 2.195339 11.63393 L 2.195339 11.63393 Z M 36.09005 12.20398 L 1.910316 12.20398 C 1.752754 12.20398 1.625309 12.07654 1.625309 11.91855 L 1.625309 5.279114 C 1.625309 5.121155 1.752754 4.993683 1.910316 4.993683 L 36.09005 4.993683 C 36.24682 4.993683 36.37468 5.121155 36.37468 5.279114 L 36.37468 11.91855 C 36.37468 12.07654 36.24682 12.20398 36.09005 12.20398 L 36.09005 12.20398 Z" fill="#000000" fill-opacity="1" stroke="none" stroke-opacity="1" stroke-width="0.3527777" stroke-linecap="butt" stroke-linejoin="miter"/>
<path d="M 19.65955 9.598892 L 21.71957 9.598892 L 21.71957 7.599075 L 19.65955 7.599075 L 19.65955 9.598892 L 19.65955 9.598892 Z M 22.0042 10.16895 L 19.37454 10.16895 C 19.21736 10.16895 19.08952 10.04077 19.08952 9.88353 L 19.08952 7.314117 C 19.08952 7.156509 19.21736 7.028671 19.37454 7.028671 L 22.0042 7.028671 C 22.16177 7.028671 22.2896 7.156509 22.2896 7.314117 L 22.2896 9.88353 C 22.2896 10.04077 22.16177 10.16895 22.0042 10.16895 L 22.0042 10.16895 Z" fill="#000000" fill-opacity="1" stroke="none" stroke-opacity="1" stroke-width="0.3527777" stroke-linecap="butt" stroke-linejoin="miter"/>
<path d="M 24.91769 9.598892 L 26.97652 9.598892 L 26.97652 7.599075 L 24.91769 7.599075 L 24.91769 9.598892 L 24.91769 9.598892 Z M 27.26154 10.16895 L 24.63306 10.16895 C 24.47549 10.16895 24.34804 10.04077 24.34804 9.88353 L 24.34804 7.314117 C 24.34804 7.156494 24.47549 7.028671 24.63306 7.028671 L 27.26154 7.028671 C 27.41872 7.028671 27.54655 7.156494 27.54655 7.314117 L 27.54655 9.88353 C 27.54655 10.04077 27.41872 10.16895 27.26154 10.16895 L 27.26154 10.16895 Z" fill="#000000" fill-opacity="1" stroke="none" stroke-opacity="1" stroke-width="0.3527777" stroke-linecap="butt" stroke-linejoin="miter"/>
<path d="M 30.1764 9.59903 L 32.23603 9.59903 L 32.23603 7.599213 L 30.1764 7.599213 L 30.1764 9.59903 L 30.1764 9.59903 Z M 32.52066 10.16908 L 29.89139 10.16908 C 29.73381 10.16908 29.60636 10.04091 29.60636 9.883667 L 29.60636 7.31424 C 29.60636 7.156631 29.73381 7.028793 29.89139 7.028793 L 32.52066 7.028793 C 32.679 7.028793 32.80606 7.156631 32.80606 7.31424 L 32.80606 9.883667 C 32.80606 10.04091 32.679 10.16908 32.52066 10.16908 L 32.52066 10.16908 Z" fill="#000000" fill-opacity="1" stroke="none" stroke-opacity="1" stroke-width="0.3527777" stroke-linecap="butt" stroke-linejoin="miter"/>
<path d="M 10.86246 22.73067 C 10.76941 22.73067 10.6787 22.68531 10.62435 22.60201 C 10.53795 22.47061 10.57432 22.29313 10.70606 22.20753 L 14.71117 19.57591 C 14.84254 19.48949 15.01965 19.52621 15.10565 19.658 C 15.19246 19.78931 15.15569 19.96607 15.02394 20.05286 L 11.01884 22.6833 C 10.97075 22.71537 10.91641 22.73067 10.86246 22.73067 L 10.86246 22.73067 Z" fill="#000000" fill-opacity="1" stroke="none" stroke-opacity="1" stroke-width="0.3527777" stroke-linecap="butt" stroke-linejoin="miter"/>
<path d="M 14.86705 25.36127 C 14.81349 25.36127 14.75914 25.34608 14.71104 25.31438 L 10.70596 22.68312 C 10.57421 22.59669 10.53785 22.42039 10.62425 22.28861 C 10.71027 22.15684 10.88698 22.12055 11.01875 22.20735 L 15.02383 24.83778 C 15.15557 24.92455 15.19234 25.10086 15.10554 25.23264 C 15.05119 25.31593 14.96009 25.36127 14.86705 25.36127 L 14.86705 25.36127 Z" fill="#000000" fill-opacity="1" stroke="none" stroke-opacity="1" stroke-width="0.3527777" stroke-linecap="butt" stroke-linejoin="miter"/>
<path d="M 27.13606 22.73051 C 27.08251 22.73051 27.02813 22.71522 26.97966 22.68314 L 22.97418 20.0527 C 22.84281 19.96591 22.80606 19.78916 22.89246 19.65784 C 22.97926 19.52607 23.156 19.48933 23.28736 19.57576 L 27.29321 22.20737 C 27.42419 22.29298 27.46135 22.47046 27.37454 22.60186 C 27.31982 22.68516 27.22872 22.73051 27.13606 22.73051 L 27.13606 22.73051 Z" fill="#000000" fill-opacity="1" stroke="none" stroke-opacity="1" stroke-width="0.3527777" stroke-linecap="butt" stroke-linejoin="miter"/>
<path d="M 23.13135 25.36131 C 23.03867 25.36131 22.94718 25.31593 22.89245 25.23265 C 22.80605 25.10087 22.84241 24.92458 22.97417 24.83781 L 26.97965 22.20736 C 27.11141 22.12015 27.28773 22.15687 27.37453 22.28863 C 27.46134 22.4204 27.42457 22.59754 27.29321 22.68313 L 23.28735 25.31438 C 23.23927 25.34608 23.18452 25.36131 23.13135 25.36131 L 23.13135 25.36131 Z" fill="#000000" fill-opacity="1" stroke="none" stroke-opacity="1" stroke-width="0.3527777" stroke-linecap="butt" stroke-linejoin="miter"/>
<path d="M 16.6836 28.27616 C 16.64686 28.27616 16.60972 28.26947 16.57374 28.25428 C 16.4287 28.1937 16.35988 28.02674 16.42088 27.88131 L 21.05152 16.79216 C 21.11289 16.64709 21.27945 16.57875 21.4249 16.63893 C 21.56995 16.69987 21.63836 16.86685 21.57815 17.01227 L 16.94673 28.10105 C 16.90137 28.21047 16.79541 28.27616 16.6836 28.27616 L 16.6836 28.27616 Z" fill="#000000" fill-opacity="1" stroke="none" stroke-opacity="1" stroke-width="0.3527777" stroke-linecap="butt" stroke-linejoin="miter"/>
</svg>