<?xml version="1.0" encoding="utf-8"?>
<!DOCTYPE svg PUBLIC "-//W3C//DTD SVG 1.1//EN" "http://www.w3.org/Graphics/SVG/1.1/DTD/svg11.dtd">
<!-- exported from Silhouette Studio® Business Edition V4.2.471ssbe -->
<svg version="1.1" xmlns="http://www.w3.org/2000/svg" xmlns:xlink="http://www.w3.org/1999/xlink" width="38mm" height="38mm" viewBox="0 0 38 38">
<defs/>
<path d="M 18.23438 32.79209 C 18.08395 32.79209 17.96207 32.67023 17.96207 32.51926 L 17.96207 29.56062 C 17.96207 29.40977 18.08395 29.28779 18.23438 29.28779 C 18.38522 29.28779 18.5072 29.40977 18.5072 29.56062 L 18.5072 32.51926 C 18.5072 32.67023 18.38522 32.79209 18.23438 32.79209 L 18.23438 32.79209 Z" fill="#000000" fill-opacity="1" stroke="none" stroke-opacity="1" stroke-width="0.3527777" stroke-linecap="butt" stroke-linejoin="miter"/>
<path d="M 18.11124 29.83293 C 15.57193 29.83293 13.10141 29.12395 10.96683 27.78302 C 10.83948 27.70258 10.80093 27.53455 10.88095 27.40717 C 10.96103 27.27979 11.12817 27.24081 11.25644 27.32123 C 13.30414 28.60817 15.67459 29.28778 18.11124 29.28778 C 25.22964 29.28778 31.02054 23.49687 31.02054 16.37839 C 31.02054 11.58942 28.39243 7.218506 24.16156 4.970886 C 24.02872 4.900085 23.97842 4.735382 24.0484 4.602501 C 24.1188 4.469727 24.28391 4.418556 24.41672 4.489853 C 28.82657 6.832138 31.56567 11.38779 31.56567 16.37839 C 31.56567 23.7973 25.53003 29.83293 18.11124 29.83293 L 18.11124 29.83293 Z" fill="#000000" fill-opacity="1" stroke="none" stroke-opacity="1" stroke-width="0.3527777" stroke-linecap="butt" stroke-linejoin="miter"/>
<path d="M 23.08798 7.052635 C 23.04187 7.052635 22.99493 7.040855 22.95178 7.016106 C 22.82187 6.940697 22.77704 6.774307 22.85205 6.643608 L 25.20737 2.561508 C 25.28281 2.431976 25.44833 2.386711 25.5799 2.461739 C 25.70981 2.537178 25.75464 2.703529 25.67963 2.834236 L 23.32431 6.916435 C 23.27356 7.003532 23.18179 7.052635 23.08798 7.052635 L 23.08798 7.052635 Z M 9.931 29.8455 C 9.885284 29.8455 9.837952 29.8338 9.795624 29.80945 C 9.664886 29.73405 9.620514 29.56728 9.695496 29.43734 L 11.83923 25.71934 C 11.91464 25.58901 12.08142 25.54425 12.21088 25.61918 C 12.34164 25.69421 12.38605 25.86097 12.31146 25.99088 L 10.16772 29.7089 C 10.11661 29.7965 10.0257 29.8455 9.931 29.8455 L 9.931 29.8455 Z" fill="#000000" fill-opacity="1" stroke="none" stroke-opacity="1" stroke-width="0.3527777" stroke-linecap="butt" stroke-linejoin="miter"/>
<path d="M 17.72409 5.606956 C 11.7995 5.606956 6.979461 10.42528 6.979462 16.34818 C 6.979462 22.27197 11.79947 27.0912 17.72409 27.0912 C 23.64612 27.0912 28.46408 22.27197 28.46408 16.34818 C 28.46408 10.42528 23.64615 5.606956 17.72409 5.606956 L 17.72409 5.606956 Z M 17.72409 27.63637 C 11.49902 27.63637 6.434296 22.5724 6.434296 16.34818 C 6.434295 10.12486 11.49905 5.061813 17.72409 5.061813 C 23.9462 5.061813 29.00885 10.12486 29.00885 16.34818 C 29.00885 22.5724 23.9462 27.63637 17.72409 27.63637 L 17.72409 27.63637 Z" fill="#000000" fill-opacity="1" stroke="none" stroke-opacity="1" stroke-width="0.3527777" stroke-linecap="butt" stroke-linejoin="miter"/>
<path d="M 10.88089 35.02968 L 25.5878 35.02968 L 25.5878 33.90715 C 25.5878 33.29198 25.08624 32.79208 24.46906 32.79208 L 12.00009 32.79208 C 11.38287 32.79208 10.88089 33.29198 10.88089 33.90715 L 10.88089 35.02968 L 10.88089 35.02968 Z M 25.86063 35.57445 L 10.60815 35.57445 C 10.45773 35.57445 10.33572 35.45247 10.33572 35.30202 L 10.33572 33.90715 C 10.33572 32.99153 11.08243 32.24693 12.00009 32.24693 L 24.46906 32.24693 C 25.38672 32.24693 26.133 32.99153 26.133 33.90715 L 26.133 35.30202 C 26.133 35.45247 26.01102 35.57445 25.86063 35.57445 L 25.86063 35.57445 Z" fill="#000000" fill-opacity="1" stroke="none" stroke-opacity="1" stroke-width="0.3527777" stroke-linecap="butt" stroke-linejoin="miter"/>
<path d="M 26.93546 10.90675 C 26.77457 11.2215 26.63873 11.59697 26.68692 11.83531 C 26.72632 12.03145 26.86673 12.14046 27.02972 12.26656 C 27.22375 12.41701 27.48856 12.62267 27.4303 12.99605 C 27.36783 13.35561 27.09216 13.40716 26.94421 13.43517 C 26.75021 13.47169 26.50845 13.51735 26.18747 14.09973 C 25.79907 14.80418 25.83429 15.64259 26.06973 16.10643 C 26.15689 16.27831 26.31445 16.48946 26.57214 16.52293 C 27.22916 16.60976 28.06976 16.31514 28.42465 16.17902 C 28.39322 14.31677 27.8812 12.50706 26.93546 10.90675 L 26.93546 10.90675 Z M 26.81604 17.08284 C 26.70837 17.08284 26.60229 17.07655 26.50092 17.06309 C 26.1171 17.01282 25.79108 16.76099 25.58408 16.35286 C 25.22833 15.65144 25.2803 14.61729 25.71021 13.83702 C 26.12088 13.09162 26.5101 12.96207 26.84326 12.8997 C 26.85794 12.89716 26.87424 12.89381 26.88892 12.89127 C 26.8797 12.84737 26.82986 12.80122 26.69617 12.6973 C 26.50009 12.54518 26.23193 12.33737 26.15311 11.94307 C 26.01401 11.25874 26.63376 10.32977 26.70499 10.22588 C 26.7565 10.15092 26.84665 10.09929 26.93335 10.10773 C 27.02432 10.1089 27.10892 10.15546 27.15839 10.23216 C 28.34381 12.06209 28.97104 14.18192 28.97104 16.36208 C 28.97104 16.47021 28.90695 16.56783 28.80804 16.61095 C 28.76404 16.63029 27.72534 17.08284 26.81604 17.08284 L 26.81604 17.08284 Z" fill="#000000" fill-opacity="1" stroke="none" stroke-opacity="1" stroke-width="0.3527777" stroke-linecap="butt" stroke-linejoin="miter"/>
<path d="M 20.69543 6.065453 C 20.61032 6.242233 20.50473 6.680519 20.84369 7.548698 C 20.98868 7.917076 21.1517 8.12912 21.29041 8.12912 C 21.47479 8.12912 21.74759 7.856293 21.94705 7.65683 C 22.02371 7.580223 22.09787 7.506363 22.16699 7.444389 C 22.37527 7.258293 22.69748 7.147301 23.12616 7.113335 C 22.35974 6.663322 21.54562 6.312164 20.69543 6.065453 L 20.69543 6.065453 Z M 21.29041 8.673798 C 20.70084 8.673798 20.42679 7.976585 20.3367 7.747368 C 19.71237 6.14872 20.34845 5.595612 20.42307 5.538269 C 20.49054 5.485916 20.57928 5.467865 20.66104 5.49054 C 21.95157 5.840759 23.16342 6.416924 24.26462 7.203484 C 24.36771 7.277153 24.40625 7.412094 24.35809 7.529053 C 24.30991 7.646294 24.1871 7.71595 24.06265 7.694145 C 24.05978 7.693748 23.76892 7.647209 23.42615 7.647209 C 22.99542 7.647209 22.6774 7.719299 22.52988 7.850403 C 22.46786 7.90657 22.40161 7.972778 22.33209 8.04229 C 22.05051 8.323463 21.70023 8.673798 21.29041 8.673798 L 21.29041 8.673798 Z" fill="#000000" fill-opacity="1" stroke="none" stroke-opacity="1" stroke-width="0.3527777" stroke-linecap="butt" stroke-linejoin="miter"/>
<path d="M 15.76968 5.820229 C 16.67981 5.899483 17.60794 6.393074 17.92636 6.840126 C 18.07596 7.05088 18.5285 7.69043 18.71332 7.717628 L 18.74512 7.673134 C 18.8277 7.610275 18.98187 7.493019 18.97687 7.428017 C 18.97519 7.406685 18.94043 7.206459 18.24063 6.827171 C 17.57397 6.466347 17.24545 6.106514 17.23627 5.72683 C 17.23547 5.701706 17.23627 5.677734 17.23837 5.654343 C 16.74261 5.676147 16.25238 5.732231 15.76968 5.820229 L 15.76968 5.820229 Z M 9.795197 9.12722 C 9.994659 9.390816 10.35504 9.884041 10.52975 10.23385 C 10.60941 10.39521 10.65463 10.59045 10.70703 10.81631 C 10.83398 11.36483 11.00827 12.11533 11.78931 13.04716 C 11.91922 13.2031 12.15561 13.3455 12.40485 13.49597 C 12.82303 13.74779 13.34351 14.06165 13.66068 14.61732 C 14.06924 15.33129 14.3324 15.3971 14.76776 15.50651 C 14.84485 15.52576 14.90311 15.52447 14.97516 15.52113 C 14.8436 15.45112 14.71497 15.3476 14.59976 15.18967 C 14.44342 14.97519 14.39859 14.73212 14.47025 14.48612 C 14.59976 14.04202 15.077 13.71134 15.36652 13.59782 C 15.55215 13.52494 15.77005 13.5098 15.91965 13.5098 C 16.0466 13.5098 16.6915 13.5262 16.92447 13.84587 C 16.93286 13.85679 16.94083 13.86809 16.94836 13.87858 C 16.90308 13.70338 16.87 13.50108 16.88382 13.28443 C 16.92532 12.61521 17.85223 11.74235 19.26141 10.48743 L 19.36908 10.39098 C 19.61633 10.16893 19.74329 9.975746 19.72525 9.847099 C 19.68756 9.576424 19.05316 9.266678 18.43927 8.966736 L 18.09277 8.796547 C 17.78055 8.639915 17.65988 8.621834 17.6142 8.668785 C 17.54297 8.741646 17.54926 9.050529 17.55264 9.216408 C 17.55811 9.476662 17.56223 9.682411 17.44034 9.827461 C 17.27438 10.02721 16.95847 10.06925 16.72171 10.06925 C 16.27792 10.06925 15.75876 9.928413 15.33389 9.692505 C 14.84067 9.417145 14.71707 9.071045 14.69989 8.829262 C 14.67267 8.440826 14.9006 8.042793 15.34186 7.708008 C 15.66031 7.46405 15.78433 7.310349 15.83124 7.233643 C 15.79941 7.226097 15.75333 7.21904 15.68799 7.216072 L 15.63849 7.214409 C 15.37115 7.214409 14.91986 7.316139 14.48325 7.414253 C 14.00851 7.521492 13.55933 7.622475 13.24631 7.622475 C 12.96429 7.622475 12.78244 7.532013 12.70493 7.353851 C 12.65128 7.230698 12.65167 7.099998 12.70493 6.976723 C 12.72672 6.927742 12.75562 6.881203 12.79248 6.836395 C 11.67743 7.411316 10.66006 8.183144 9.795197 9.12722 L 9.795197 9.12722 Z M 16.99112 17.21397 C 16.66681 17.21397 16.27585 16.84528 15.96951 16.2515 C 15.86392 16.04655 15.74448 16.00639 15.5744 16.00639 C 15.47461 16.00639 15.37115 16.02142 15.26935 16.03526 C 15.04724 16.06551 14.82809 16.08348 14.65421 16.03947 C 14.16022 15.91544 13.71182 15.80309 13.18805 14.88718 C 12.94125 14.45506 12.52512 14.20454 12.12329 13.96235 C 11.83377 13.78724 11.56015 13.62257 11.37158 13.39707 C 10.50711 12.36549 10.30768 11.50723 10.17654 10.93947 C 10.13171 10.74629 10.09317 10.57993 10.0416 10.47604 C 9.823273 10.03901 9.233307 9.290634 9.227417 9.283089 C 9.146118 9.180061 9.149902 9.032936 9.236633 8.934441 C 11.37787 6.497383 14.46399 5.099464 17.70471 5.099464 C 17.82709 5.099464 17.93433 5.180794 17.96704 5.298531 C 17.99969 5.416298 17.95068 5.541222 17.84634 5.604866 C 17.8468 5.604866 17.77805 5.653076 17.78055 5.71553 C 17.78265 5.756973 17.82666 5.983742 18.50003 6.348183 C 19.17841 6.715706 19.4931 7.036255 19.52036 7.386566 C 19.54761 7.746979 19.25177 7.971992 19.07495 8.106834 L 19.01294 8.154655 C 18.92703 8.224586 18.82184 8.262398 18.70996 8.262398 C 18.29932 8.262398 17.91089 7.760742 17.48264 7.155678 C 17.28903 6.884132 16.42163 6.354591 15.52414 6.354591 C 15.30832 6.354591 15.10886 6.386787 14.93076 6.449654 L 14.63831 6.553947 C 14.19537 6.711098 13.62466 6.913887 13.35272 7.073082 C 13.61169 7.05265 13.99298 6.966713 14.36343 6.883339 C 14.89182 6.763527 15.39426 6.652855 15.71857 6.672203 C 16.08896 6.691841 16.31357 6.817543 16.38437 7.046356 C 16.47824 7.349731 16.25198 7.697487 15.67206 8.141594 C 15.38586 8.358742 15.22998 8.595528 15.24335 8.791145 C 15.25717 8.986397 15.44406 9.130165 15.5983 9.216408 C 16.00769 9.44355 16.44727 9.524384 16.72171 9.524384 C 16.87463 9.524384 16.96512 9.501015 17.0058 9.484215 C 17.01205 9.422646 17.00995 9.308235 17.00833 9.227394 C 17.00159 8.913918 16.99362 8.5242 17.22495 8.287521 C 17.30371 8.207886 17.44409 8.111946 17.6687 8.111946 C 17.85388 8.111946 18.07266 8.176849 18.33664 8.309235 L 18.6781 8.477264 C 19.52124 8.88916 20.18744 9.214333 20.26495 9.772072 C 20.31064 10.09931 20.13675 10.43459 19.73239 10.79658 L 19.62341 10.8942 C 18.70953 11.70795 17.45828 12.82265 17.42731 13.31919 C 17.41052 13.58228 17.49728 13.83075 17.56726 14.02982 C 17.64059 14.23929 17.70383 14.42031 17.60541 14.585 C 17.55301 14.67299 17.46423 14.73164 17.35568 14.74841 C 16.97226 14.81128 16.66681 14.41914 16.48364 14.16595 C 16.44763 14.13245 16.23138 14.05457 15.91965 14.05457 C 15.77591 14.05457 15.64688 14.07294 15.56473 14.10487 C 15.37283 14.18027 15.05853 14.41364 14.99319 14.63824 C 14.9693 14.72083 14.98352 14.79203 15.03925 14.86832 C 15.19266 15.07732 15.35944 15.10462 15.66571 15.13813 C 15.86478 15.15992 16.09064 15.18467 16.32568 15.2923 C 16.81973 15.51946 17.1998 16.15094 17.32339 16.49537 C 17.39966 16.70907 17.4072 16.86659 17.34647 16.99191 C 17.28146 17.1302 17.14825 17.21397 16.99112 17.21397 L 16.99112 17.21397 Z" fill="#000000" fill-opacity="1" stroke="none" stroke-opacity="1" stroke-width="0.3527777" stroke-linecap="butt" stroke-linejoin="miter"/>
<path d="M 18.5444 16.7665 C 18.35626 16.7665 18.19495 16.85655 18.05167 17.04346 C 17.6976 17.50227 17.60205 18.34531 17.73361 18.8448 C 17.85605 19.3166 18.20541 19.59493 18.51385 19.84044 C 18.73804 20.01811 18.94919 20.18654 19.05106 20.41154 C 19.29825 20.95335 18.94751 22.80882 18.83398 23.36488 C 18.81009 23.48676 18.7699 23.62837 18.72543 23.78218 C 18.56454 24.34245 18.36423 25.03886 18.78787 25.6234 C 18.83774 25.69166 18.88217 25.74617 18.92194 25.78938 C 18.70572 25.35735 18.86752 24.81966 19.01541 24.33028 C 19.2283 23.6217 19.72607 23.19686 20.16565 22.8218 C 20.26703 22.73546 20.36765 22.64963 20.46439 22.56114 C 20.94794 22.11781 21.99973 20.55651 22.57336 19.59995 C 22.72629 19.34557 22.88596 18.99105 22.77951 18.74385 C 22.67477 18.50127 22.32068 18.37761 22.04242 18.31682 C 21.22281 18.13789 21.00537 17.94099 20.61023 17.5836 C 20.53476 17.51525 20.45139 17.43983 20.35379 17.35556 C 19.92389 16.98189 19.04099 16.8213 18.73718 16.79116 C 18.64713 16.77279 18.5943 16.7665 18.5444 16.7665 L 18.5444 16.7665 Z M 19.14948 26.49835 C 18.88129 26.49835 18.61856 26.31734 18.34708 25.94396 C 17.76712 25.14355 18.02859 24.23394 18.20163 23.63173 C 18.24146 23.49394 18.27835 23.36774 18.30014 23.25754 C 18.51553 22.19994 18.67389 20.89845 18.5545 20.63652 C 18.50671 20.53056 18.34586 20.40231 18.17526 20.26659 C 17.83713 19.99759 17.37411 19.62969 17.20691 18.9827 C 17.03928 18.34865 17.14737 17.32504 17.62003 16.71111 C 17.92929 16.30886 18.35751 16.14375 18.82642 16.25523 L 18.82684 16.25523 C 18.84988 16.25523 20.06592 16.38347 20.71036 16.94368 C 20.81052 17.03 20.89728 17.10876 20.97559 17.17957 C 21.34308 17.5123 21.48099 17.63683 22.15894 17.78464 C 22.74515 17.9129 23.12268 18.16344 23.27982 18.52847 C 23.43866 18.89725 23.35818 19.35184 23.04016 19.88023 C 22.4556 20.85573 21.38373 22.45772 20.83273 22.96252 C 20.7309 23.05524 20.62573 23.14529 20.51932 23.23624 C 20.09985 23.59401 19.70346 23.93185 19.53668 24.48701 C 19.28909 25.30992 19.30368 25.5576 19.6138 25.74911 C 19.72739 25.81905 19.77344 25.96115 19.72229 26.08479 C 19.65903 26.2381 19.46716 26.49835 19.14948 26.49835 L 19.14948 26.49835 Z" fill="#000000" fill-opacity="1" stroke="none" stroke-opacity="1" stroke-width="0.3527777" stroke-linecap="butt" stroke-linejoin="miter"/>
</svg>