<?xml version="1.0" encoding="utf-8"?>
<!DOCTYPE svg PUBLIC "-//W3C//DTD SVG 1.1//EN" "http://www.w3.org/Graphics/SVG/1.1/DTD/svg11.dtd">
<!-- exported from Silhouette Studio® Business Edition V4.2.471ssbe -->
<svg version="1.1" xmlns="http://www.w3.org/2000/svg" xmlns:xlink="http://www.w3.org/1999/xlink" width="38mm" height="38mm" viewBox="0 0 38 38">
<defs/>
<path d="M 26.42342 6.216309 C 24.521 4.313828 21.92357 3.154221 18.9998 3.154221 C 16.12233 3.154221 13.4782 4.313828 11.62292 6.216309 C 9.720413 8.118378 8.513687 10.71768 8.513687 13.64079 C 8.513687 17.39932 13.61766 25.70328 17.09734 31.41185 C 17.83936 32.61713 18.48993 33.68474 18.99983 34.56704 C 19.55605 33.68474 20.20654 32.61713 20.94824 31.41185 C 24.42828 25.70328 29.48589 17.39932 29.48589 13.64079 C 29.48589 10.71768 28.32507 8.118378 26.42342 6.216309 L 26.42342 6.216309 Z M 18.9998 2.597198 C 22.06268 2.597198 24.79909 3.80394 26.79579 5.799057 C 28.83693 7.793854 30.04251 10.57828 30.04251 13.64079 C 30.04251 17.53831 24.93814 25.9366 21.41212 31.68997 C 20.57774 33.08215 19.83577 34.28734 19.23158 35.26234 C 19.18521 35.40146 18.99983 35.44778 18.86072 35.35543 C 18.81439 35.35543 18.81441 35.30911 18.76804 35.26234 C 18.21178 34.28734 17.4686 33.08215 16.63422 31.68997 C 13.10782 25.9366 7.957443 17.53831 7.957443 13.64079 C 7.957443 10.57828 9.208969 7.793854 11.20531 5.799057 C 13.2005 3.80394 15.98329 2.597198 18.9998 2.597198 L 18.9998 2.597198 Z" fill="#000000" fill-opacity="1" stroke="none" stroke-opacity="1" stroke-width="0.3527777" stroke-linecap="butt" stroke-linejoin="miter"/>
<path d="M 23.6866 8.490829 C 22.47983 7.283981 20.85585 6.540787 18.99979 6.540787 C 17.19043 6.540787 15.52013 7.283981 14.35933 8.490829 C 13.1541 9.649597 12.41092 11.3199 12.41092 13.12973 C 12.41092 14.98535 13.1541 16.60938 14.35933 17.8165 C 15.52013 19.02324 17.19043 19.71863 18.99979 19.71863 C 20.85585 19.71863 22.47983 19.02324 23.6866 17.8165 C 24.89337 16.60938 25.63536 14.98535 25.63536 13.12973 C 25.63536 11.3199 24.89337 9.649597 23.6866 8.490829 L 23.6866 8.490829 Z M 18.99979 5.984497 C 20.99452 5.984497 22.75793 6.774094 24.05739 8.071991 C 25.35724 9.371536 26.19164 11.18127 26.19164 13.12973 C 26.19164 15.12488 25.35724 16.88786 24.05739 18.18733 C 22.75793 19.4868 20.99452 20.27481 18.99979 20.27481 C 17.05135 20.27481 15.24197 19.4868 13.94215 18.18733 C 12.64265 16.88786 11.85466 15.12488 11.85466 13.12973 C 11.85466 11.18127 12.64265 9.371536 13.94215 8.071991 C 15.24197 6.774094 17.05135 5.984497 18.99979 5.984497 L 18.99979 5.984497 Z" fill="#000000" fill-opacity="1" stroke="none" stroke-opacity="1" stroke-width="0.3527777" stroke-linecap="butt" stroke-linejoin="miter"/>
<path d="M 18.9998 8.211136 C 18.86072 8.211136 18.72168 8.071991 18.72168 7.932968 C 18.72168 7.793869 18.86072 7.654846 18.9998 7.654846 C 20.53143 7.654846 21.92358 8.257065 22.89702 9.278748 C 23.87198 10.25377 24.521 11.64438 24.521 13.12975 C 24.521 13.31471 24.38188 13.40785 24.24283 13.40785 C 24.05742 13.40785 23.96469 13.31471 23.96469 13.12975 C 23.96469 11.78387 23.40846 10.53191 22.47984 9.649612 C 21.59872 8.768875 20.39194 8.211136 18.9998 8.211136 L 18.9998 8.211136 Z" fill="#000000" fill-opacity="1" stroke="none" stroke-opacity="1" stroke-width="0.3527777" stroke-linecap="butt" stroke-linejoin="miter"/>
</svg>