<?xml version="1.0" encoding="utf-8"?>
<!DOCTYPE svg PUBLIC "-//W3C//DTD SVG 1.1//EN" "http://www.w3.org/Graphics/SVG/1.1/DTD/svg11.dtd">
<!-- exported from Silhouette Studio® Business Edition V4.2.471ssbe -->
<svg version="1.1" xmlns="http://www.w3.org/2000/svg" xmlns:xlink="http://www.w3.org/1999/xlink" width="38mm" height="38mm" viewBox="0 0 38 38">
<defs/>
<path d="M 18.17838 5.816193 L 19.8195 5.816193 L 19.8195 4.837967 C 19.29892 4.889313 18.70326 4.889832 18.17838 4.837555 L 18.17838 5.816193 L 18.17838 5.816193 Z M 20.09984 6.377319 L 17.89803 6.377319 C 17.74319 6.377319 17.61769 6.251877 17.61769 6.097 L 17.61769 4.521057 C 17.61769 4.43988 17.65306 4.362259 17.71474 4.309265 C 17.77598 4.255798 17.85792 4.232452 17.93857 4.243668 C 18.59545 4.339798 19.40762 4.339401 20.05974 4.243668 C 20.14039 4.233368 20.22235 4.255814 20.28316 4.308777 C 20.34527 4.362259 20.38063 4.43988 20.38063 4.521057 L 20.38063 6.097 C 20.38063 6.251877 20.25513 6.377319 20.09984 6.377319 L 20.09984 6.377319 Z" fill="#000000" fill-opacity="1" stroke="none" stroke-opacity="1" stroke-width="0.3527777" stroke-linecap="butt" stroke-linejoin="miter"/>
<path d="M 18.9987 8.184937 C 19.59476 8.184937 20.18694 8.221542 20.76359 8.294006 L 20.76359 6.377289 L 17.23682 6.377289 L 17.23682 8.294006 C 17.81305 8.221542 18.40437 8.184937 18.9987 8.184937 L 18.9987 8.184937 Z M 16.95605 8.896606 C 16.88964 8.896606 16.82451 8.872452 16.77361 8.828476 C 16.71149 8.775406 16.67571 8.697739 16.67571 8.615768 L 16.67571 6.09697 C 16.67571 5.941711 16.80122 5.816162 16.95605 5.816162 L 21.04437 5.816162 C 21.19921 5.816162 21.32473 5.941711 21.32473 6.09697 L 21.32473 8.615768 C 21.32473 8.697739 21.28892 8.775406 21.22725 8.828476 C 21.16558 8.881943 21.08319 8.905579 21.00256 8.893158 C 19.70345 8.698166 18.29957 8.697342 16.99789 8.893158 C 16.98409 8.895279 16.97029 8.896606 16.95605 8.896606 L 16.95605 8.896606 Z" fill="#000000" fill-opacity="1" stroke="none" stroke-opacity="1" stroke-width="0.3527777" stroke-linecap="butt" stroke-linejoin="miter"/>
<path d="M 18.99869 2.500763 C 17.2075 2.500763 16.06497 3.038223 16.06497 3.408325 C 16.06497 3.778305 17.2075 4.315674 18.99869 4.315674 C 20.79163 4.315674 21.93547 3.778305 21.93547 3.408325 C 21.93547 3.038223 20.79163 2.500763 18.99869 2.500763 L 18.99869 2.500763 Z M 18.99869 4.876923 C 17.26183 4.876923 15.50383 4.372314 15.50383 3.408325 C 15.50383 2.444351 17.26183 1.939728 18.99869 1.939728 C 20.73687 1.939728 22.49657 2.444351 22.49657 3.408325 C 22.49657 4.372314 20.73687 4.876923 18.99869 4.876923 L 18.99869 4.876923 Z" fill="#000000" fill-opacity="1" stroke="none" stroke-opacity="1" stroke-width="0.3527777" stroke-linecap="butt" stroke-linejoin="miter"/>
<path d="M 18.99869 10.72183 C 12.71374 10.72183 7.600608 15.83543 7.600609 22.12042 C 7.600609 28.40543 12.71374 33.51895 18.99869 33.51895 C 25.28411 33.51895 30.39721 28.40544 30.39721 22.12042 C 30.39721 15.83543 25.28411 10.72183 18.99869 10.72183 L 18.99869 10.72183 Z M 18.99869 34.08006 C 12.40449 34.08006 7.03991 28.71465 7.039909 22.12042 C 7.039909 15.5262 12.40449 10.16072 18.99869 10.16072 C 25.59335 10.16072 30.95837 15.5262 30.95837 22.12042 C 30.95837 28.71465 25.59335 34.08006 18.99869 34.08006 L 18.99869 34.08006 Z M 18.99869 8.746109 C 11.62253 8.746109 5.621788 14.7455 5.621788 22.12042 C 5.621789 29.49748 11.62253 35.49956 18.99869 35.49956 C 26.37616 35.49956 32.3782 29.49747 32.3782 22.12042 C 32.3782 14.7455 26.37616 8.746109 18.99869 8.746109 L 18.99869 8.746109 Z M 18.99869 36.06026 C 11.31329 36.06026 5.061097 29.8067 5.061096 22.12042 C 5.061096 14.43669 11.31329 8.184967 18.99869 8.184967 C 26.68541 8.184967 32.93934 14.43669 32.93934 22.12042 C 32.93934 29.8067 26.68541 36.06026 18.99869 36.06026 L 18.99869 36.06026 Z" fill="#000000" fill-opacity="1" stroke="none" stroke-opacity="1" stroke-width="0.3527777" stroke-linecap="butt" stroke-linejoin="miter"/>
<path d="M 18.71796 12.23489 C 13.39478 12.38408 9.109337 16.76093 9.109337 22.12038 C 9.109337 27.57596 13.54575 32.01413 18.99871 32.01413 C 24.35854 32.01413 28.73672 27.7269 28.88594 22.40071 L 18.99871 22.40071 C 18.84347 22.40071 18.71796 22.27516 18.71796 22.12041 L 18.71796 12.23489 L 18.71796 12.23489 Z M 18.99871 32.57526 C 13.2365 32.57526 8.54908 27.88519 8.54908 22.12038 C 8.54908 16.35809 13.2365 11.6703 18.99871 11.6703 C 19.15356 11.6703 19.27908 11.79576 19.27908 11.95062 L 19.27908 21.8401 L 29.17017 21.8401 C 29.325 21.8401 29.45051 21.96553 29.45051 22.12041 C 29.45051 27.88521 24.76182 32.57526 18.99871 32.57526 L 18.99871 32.57526 Z" fill="#000000" fill-opacity="1" stroke="none" stroke-opacity="1" stroke-width="0.3527777" stroke-linecap="butt" stroke-linejoin="miter"/>
<path d="M 28.2411 11.76949 C 28.5469 12.04977 28.83976 12.34314 29.11621 12.64459 L 29.8736 11.88724 C 29.7343 11.73672 29.59153 11.58702 29.44489 11.44124 C 29.29911 11.29507 29.15031 11.15051 28.99892 11.01173 L 28.2411 11.76949 L 28.2411 11.76949 Z M 29.10502 13.33299 C 29.10198 13.33299 29.09941 13.3326 29.09596 13.3326 C 29.01833 13.32997 28.94544 13.29538 28.89411 13.23727 C 28.51196 12.80157 28.09319 12.38197 27.6485 11.99117 C 27.59071 11.93982 27.55663 11.8669 27.55405 11.78928 C 27.55148 11.71165 27.5808 11.63666 27.63557 11.58186 L 28.79104 10.42683 C 28.89585 10.32242 29.06403 10.31726 29.17447 10.41481 C 29.40134 10.61447 29.62431 10.82753 29.84125 11.04398 C 30.05779 11.2601 30.26783 11.48523 30.4688 11.70914 C 30.5689 11.81993 30.56413 11.98943 30.45888 12.09508 L 29.30343 13.25102 C 29.25079 13.30368 29.17921 13.33299 29.10502 13.33299 L 29.10502 13.33299 Z" fill="#000000" fill-opacity="1" stroke="none" stroke-opacity="1" stroke-width="0.3527777" stroke-linecap="butt" stroke-linejoin="miter"/>
<path d="M 8.129845 11.88295 L 8.886353 12.63989 C 9.161957 12.33754 9.451355 12.04774 9.751991 11.7735 L 8.994621 11.01602 C 8.845818 11.15318 8.699165 11.29422 8.55555 11.43956 C 8.409325 11.58585 8.267426 11.73372 8.129845 11.88295 L 8.129845 11.88295 Z M 8.898438 13.32831 C 8.824249 13.32831 8.752655 13.29898 8.700035 13.24632 L 7.544998 12.0909 C 7.439751 11.98567 7.435005 11.81694 7.533775 11.70615 C 7.73304 11.48184 7.941368 11.26105 8.157883 11.04454 C 8.362305 10.83751 8.578835 10.6326 8.818214 10.42001 C 8.929489 10.32164 9.098122 10.32603 9.202507 10.43074 L 10.35796 11.58627 C 10.41275 11.64145 10.4425 11.71649 10.43991 11.79463 C 10.43732 11.87175 10.40282 11.94463 10.34417 11.99596 C 9.908112 12.37637 9.49276 12.79211 9.109772 13.23207 C 9.058868 13.29027 8.985542 13.32527 8.907928 13.3279 C 8.904907 13.3279 8.901466 13.32831 8.898438 13.32831 L 8.898438 13.32831 Z" fill="#000000" fill-opacity="1" stroke="none" stroke-opacity="1" stroke-width="0.3527777" stroke-linecap="butt" stroke-linejoin="miter"/>
<path d="M 8.354958 6.375534 C 7.055008 6.375534 5.833122 6.881882 4.914009 7.801086 C 3.995338 8.71965 3.48941 9.942001 3.48941 11.24197 C 3.48941 12.54279 3.995338 13.76471 4.914009 14.6834 C 5.028297 14.79892 5.152946 14.91154 5.286652 15.02022 C 6.021591 13.55252 6.986427 12.21585 8.15786 11.04395 C 9.325394 9.874252 10.66071 8.909119 12.1306 8.171997 C 12.02364 8.039963 11.9128 7.917557 11.79591 7.801102 C 10.8768 6.881897 9.654907 6.375534 8.354958 6.375534 L 8.354958 6.375534 Z M 5.389305 15.73015 C 5.33194 15.73015 5.275444 15.71246 5.22757 15.67798 C 4.963173 15.49117 4.72422 15.28932 4.51635 15.07843 C 3.492844 14.05534 2.928291 12.69247 2.928291 11.24197 C 2.928291 9.792404 3.492851 8.429428 4.517639 7.404205 C 5.542412 6.379379 6.905334 5.814896 8.354958 5.814896 C 9.804588 5.814896 11.16749 6.379395 12.19228 7.404236 C 12.40273 7.6147 12.60374 7.852325 12.7892 8.110733 C 12.83794 8.17804 12.8539 8.263351 12.83276 8.344009 C 12.81207 8.424698 12.75684 8.491501 12.68137 8.527283 C 11.14679 9.254532 9.758423 10.23444 8.554642 11.44041 C 7.346558 12.64841 6.367073 14.03775 5.642906 15.56923 C 5.607536 15.64383 5.540695 15.69952 5.460907 15.72064 C 5.437172 15.72672 5.41346 15.73015 5.389305 15.73015 L 5.389305 15.73015 Z" fill="#000000" fill-opacity="1" stroke="none" stroke-opacity="1" stroke-width="0.3527777" stroke-linecap="butt" stroke-linejoin="miter"/>
<path d="M 25.86723 8.172012 C 27.33668 8.909149 28.672 9.873932 29.84127 11.04449 C 31.01359 12.21591 31.97882 13.55208 32.71379 15.01987 C 32.84447 14.91333 32.96912 14.80072 33.08556 14.68385 C 34.0051 13.76477 34.51143 12.5428 34.51143 11.24202 C 34.51143 9.942047 34.0051 8.719711 33.08601 7.801132 C 32.16646 6.881927 30.94415 6.37558 29.64332 6.37558 C 28.34335 6.37558 27.12104 6.881927 26.20237 7.801132 C 26.08376 7.92009 25.97203 8.044342 25.86723 8.172012 L 25.86723 8.172012 Z M 32.6107 15.73019 C 32.58742 15.73019 32.56323 15.72678 32.53952 15.72069 C 32.45972 15.69957 32.39246 15.64389 32.35707 15.56927 C 31.6338 14.03822 30.65343 12.64897 29.44491 11.44087 C 28.23942 10.23409 26.85062 9.25412 25.31647 8.527313 C 25.24142 8.491531 25.18578 8.424744 25.16551 8.344971 C 25.14438 8.264282 25.16033 8.178879 25.2082 8.111649 C 25.38287 7.865814 25.58386 7.628143 25.8047 7.405563 C 26.83077 6.379425 28.1937 5.814957 29.64332 5.814957 C 31.09379 5.814957 32.45712 6.379425 33.48235 7.404251 C 34.50755 8.429489 35.07173 9.792419 35.07173 11.24202 C 35.07173 12.69252 34.50755 14.05539 33.48276 15.08022 C 33.26842 15.29543 33.02907 15.49689 32.77287 15.67802 C 32.72498 15.71252 32.66808 15.73019 32.6107 15.73019 L 32.6107 15.73019 Z" fill="#000000" fill-opacity="1" stroke="none" stroke-opacity="1" stroke-width="0.3527777" stroke-linecap="butt" stroke-linejoin="miter"/>
</svg>