<?xml version="1.0" encoding="utf-8"?>
<!DOCTYPE svg PUBLIC "-//W3C//DTD SVG 1.1//EN" "http://www.w3.org/Graphics/SVG/1.1/DTD/svg11.dtd">
<!-- exported from Silhouette Studio® Business Edition V4.2.471ssbe -->
<svg version="1.1" xmlns="http://www.w3.org/2000/svg" xmlns:xlink="http://www.w3.org/1999/xlink" width="38mm" height="38mm" viewBox="0 0 38 38">
<defs/>
<path d="M 15.15527 28.09572 L 15.15527 31.30763 C 15.15527 33.07877 16.596 34.51991 18.36762 34.51991 L 19.63643 34.51991 C 21.40762 34.51991 22.84875 33.07877 22.84875 31.30763 L 22.84875 28.09572 L 15.15527 28.09572 L 15.15527 28.09572 Z M 19.63643 35.0471 L 18.36762 35.0471 C 16.30566 35.0471 14.62813 33.36958 14.62813 31.30763 L 14.62813 27.8317 C 14.62813 27.68611 14.74613 27.56807 14.8917 27.56807 L 23.11232 27.56807 C 23.2579 27.56807 23.3759 27.68611 23.3759 27.8317 L 23.3759 31.30763 C 23.3759 33.36958 21.69836 35.0471 19.63643 35.0471 L 19.63643 35.0471 Z" fill="#000000" fill-opacity="1" stroke="none" stroke-opacity="1" stroke-width="0.458611" stroke-linecap="round" stroke-linejoin="round"/>
<path d="M 15.10661 27.56808 L 22.89741 27.56808 C 23.23073 26.08607 24.14714 24.56906 25.49704 23.27274 C 27.70578 21.17145 28.78074 18.21822 28.44662 15.16969 C 27.95151 10.68494 24.33327 7.067039 19.84362 6.567886 C 19.71264 6.569977 19.56139 6.556099 19.41257 6.542328 C 19.27998 6.529785 19.14698 6.517242 19.00221 6.517242 C 18.69809 6.517242 18.45763 6.517235 18.17134 6.565422 C 13.67602 7.066261 10.05819 10.68407 9.553745 15.17054 C 9.22002 18.21651 10.29622 21.16936 12.50616 23.27188 C 13.85687 24.56905 14.77329 26.08607 15.10661 27.56808 L 15.10661 27.56808 Z M 23.11232 28.09573 L 14.8917 28.09573 C 14.76478 28.09573 14.6557 28.00488 14.63258 27.88039 C 14.36294 26.43761 13.47814 24.93647 12.14203 23.65308 C 9.812458 21.43698 8.677883 18.32362 9.02985 15.11247 C 9.561455 10.38281 13.37555 6.56913 18.09796 6.043671 C 18.41304 5.989677 18.68634 5.989677 19.00221 5.989677 C 19.16441 5.989677 19.31282 6.002991 19.46164 6.01725 C 19.59465 6.029411 19.72725 6.041954 19.87281 6.041954 C 24.63455 6.570374 28.44825 10.38406 28.97052 15.11211 C 29.32249 18.32564 28.18914 21.43907 25.86118 23.65385 C 24.52547 24.93648 23.64108 26.43761 23.37143 27.88039 C 23.34792 28.00488 23.23925 28.09573 23.11232 28.09573 L 23.11232 28.09573 Z" fill="#000000" fill-opacity="1" stroke="none" stroke-opacity="1" stroke-width="0.458611" stroke-linecap="round" stroke-linejoin="round"/>
<path d="M 24.0989 29.83034 L 13.90473 29.83034 C 13.75916 29.83034 13.64116 29.7124 13.64116 29.56681 C 13.64116 29.42083 13.75916 29.3028 13.90473 29.3028 L 24.0989 29.3028 C 24.24446 29.3028 24.36247 29.42083 24.36247 29.56681 C 24.36247 29.7124 24.24446 29.83034 24.0989 29.83034 L 24.0989 29.83034 Z" fill="#000000" fill-opacity="1" stroke="none" stroke-opacity="1" stroke-width="0.458611" stroke-linecap="round" stroke-linejoin="round"/>
<path d="M 24.0989 31.60157 L 13.90473 31.60157 C 13.75916 31.60157 13.64116 31.48363 13.64116 31.33803 C 13.64116 31.19244 13.75916 31.07439 13.90473 31.07439 L 24.0989 31.07439 C 24.24446 31.07439 24.36247 31.19244 24.36247 31.33803 C 24.36247 31.48363 24.24446 31.60157 24.0989 31.60157 L 24.0989 31.60157 Z" fill="#000000" fill-opacity="1" stroke="none" stroke-opacity="1" stroke-width="0.458611" stroke-linecap="round" stroke-linejoin="round"/>
<path d="M 24.0989 33.36917 L 13.90473 33.36917 C 13.75916 33.36917 13.64116 33.25114 13.64116 33.10516 C 13.64116 32.95956 13.75916 32.84152 13.90473 32.84152 L 24.0989 32.84152 C 24.24447 32.84152 24.36248 32.95956 24.36248 33.10516 C 24.36248 33.25114 24.24447 33.36917 24.0989 33.36917 L 24.0989 33.36917 Z" fill="#000000" fill-opacity="1" stroke="none" stroke-opacity="1" stroke-width="0.458611" stroke-linecap="round" stroke-linejoin="round"/>
<path d="M 18.30589 28.15363 C 18.26962 28.14957 18.23344 28.13742 18.19977 28.11732 C 18.14239 28.08317 18.10296 28.03057 18.08425 27.9714 L 16.08931 23.64959 C 16.02815 23.51751 16.08562 23.36077 16.21811 23.29961 C 16.35016 23.23878 16.50653 23.2963 16.56764 23.42877 L 18.33955 27.2667 L 19.78566 23.84934 C 19.84263 23.71531 19.99772 23.65264 20.13137 23.70915 C 20.26536 23.76617 20.32808 23.92083 20.27111 24.05485 L 18.65696 27.86306 L 18.56149 28.0275 C 18.50648 28.11842 18.40503 28.16468 18.30589 28.15363 L 18.30589 28.15363 Z" fill="#000000" fill-opacity="1" stroke="none" stroke-opacity="1" stroke-width="0.458611" stroke-linecap="round" stroke-linejoin="round"/>
<path d="M 18.38487 22.33676 C 18.13589 22.33676 17.85935 22.25599 17.56131 22.02248 C 17.09174 21.6563 16.59582 21.8363 16.08733 22.07238 C 15.90039 22.15916 15.76538 22.22234 15.63277 22.22234 C 15.4876 22.22234 15.3696 22.10393 15.3696 21.95842 C 15.3696 21.81568 15.48314 21.69887 15.62506 21.69526 C 15.66602 21.68708 15.78118 21.63359 15.86552 21.59471 C 16.30508 21.39076 17.12256 21.01033 17.88611 21.60765 C 18.3285 21.95273 18.62574 21.79581 19.00284 21.59509 C 19.21045 21.48438 19.42538 21.37042 19.66462 21.36073 C 20.25015 21.33516 21.2939 21.76416 21.41068 21.81368 C 21.5449 21.86957 21.60775 22.02448 21.5514 22.15829 C 21.49502 22.29249 21.34054 22.35617 21.20631 22.29904 C 20.9184 22.17815 20.08673 21.85911 19.68854 21.88705 C 19.5669 21.89188 19.4132 21.97382 19.25019 22.06059 C 19.02433 22.18062 18.73075 22.33676 18.38487 22.33676 L 18.38487 22.33676 Z" fill="#000000" fill-opacity="1" stroke="none" stroke-opacity="1" stroke-width="0.458611" stroke-linecap="round" stroke-linejoin="round"/>
<path d="M 19.00222 5.19162 C 18.85666 5.19162 18.73865 5.073692 18.73865 4.928093 L 18.73865 3.216446 C 18.73865 3.070847 18.85666 2.952904 19.00222 2.952904 C 19.1478 2.952904 19.2658 3.070847 19.2658 3.216446 L 19.2658 4.928093 C 19.2658 5.073692 19.1478 5.19162 19.00222 5.19162 L 19.00222 5.19162 Z" fill="#000000" fill-opacity="1" stroke="none" stroke-opacity="1" stroke-width="0.458611" stroke-linecap="round" stroke-linejoin="round"/>
<path d="M 25.13088 6.835464 C 25.08627 6.835464 25.04086 6.82415 24.99951 6.799828 C 24.87339 6.727608 24.83041 6.565842 24.903 6.440117 L 25.759 4.957237 C 25.83199 4.831505 25.99297 4.787674 26.11908 4.861145 C 26.24519 4.933762 26.28818 5.095131 26.21558 5.221153 L 25.35959 6.703743 C 25.31051 6.78804 25.22212 6.835464 25.13088 6.835464 L 25.13088 6.835464 Z" fill="#000000" fill-opacity="1" stroke="none" stroke-opacity="1" stroke-width="0.458611" stroke-linecap="round" stroke-linejoin="round"/>
<path d="M 29.61729 11.32185 C 29.52647 11.32185 29.43765 11.27405 29.38899 11.18975 C 29.31641 11.06362 29.35941 10.90216 29.4855 10.83003 L 30.96799 9.974022 C 31.0937 9.901031 31.25509 9.944466 31.32807 10.07058 C 31.40066 10.19669 31.35767 10.35798 31.23157 10.43019 L 29.74866 11.28621 C 29.70731 11.31016 29.66231 11.32185 29.61729 11.32185 L 29.61729 11.32185 Z" fill="#000000" fill-opacity="1" stroke="none" stroke-opacity="1" stroke-width="0.458611" stroke-linecap="round" stroke-linejoin="round"/>
<path d="M 32.97239 17.45058 L 31.26078 17.45058 C 31.11522 17.45058 30.99721 17.33255 30.99721 17.18658 C 30.99721 17.04107 31.11522 16.92303 31.26078 16.92303 L 32.97239 16.92303 C 33.11796 16.92303 33.23596 17.04107 33.23596 17.18658 C 33.23596 17.33255 33.11796 17.45058 32.97239 17.45058 L 32.97239 17.45058 Z" fill="#000000" fill-opacity="1" stroke="none" stroke-opacity="1" stroke-width="0.458611" stroke-linecap="round" stroke-linejoin="round"/>
<path d="M 31.0998 24.43971 C 31.05479 24.43971 31.00937 24.4284 30.968 24.40445 L 29.48551 23.54929 C 29.35941 23.47631 29.31642 23.31531 29.38901 23.18872 C 29.46159 23.06345 29.62298 23.02013 29.74868 23.09225 L 31.23158 23.9474 C 31.35769 24.02039 31.40067 24.1814 31.32809 24.30788 C 31.27943 24.3923 31.19063 24.43971 31.0998 24.43971 L 31.0998 24.43971 Z" fill="#000000" fill-opacity="1" stroke="none" stroke-opacity="1" stroke-width="0.458611" stroke-linecap="round" stroke-linejoin="round"/>
<path d="M 6.900597 24.4397 C 6.809765 24.4397 6.720959 24.39226 6.672298 24.30786 C 6.599716 24.18137 6.642696 24.02037 6.768814 23.94738 L 8.251301 23.09223 C 8.377003 23.0201 8.538803 23.06343 8.611385 23.1887 C 8.683971 23.31528 8.640987 23.4763 8.514877 23.54927 L 7.032375 24.40443 C 6.990612 24.42838 6.945606 24.4397 6.900597 24.4397 L 6.900597 24.4397 Z" fill="#000000" fill-opacity="1" stroke="none" stroke-opacity="1" stroke-width="0.458611" stroke-linecap="round" stroke-linejoin="round"/>
<path d="M 6.742859 17.45056 L 5.027607 17.45056 C 4.882034 17.45056 4.764034 17.33253 4.764034 17.18655 C 4.764034 17.04105 4.882034 16.923 5.027607 16.923 L 6.742859 16.923 C 6.888435 16.923 7.006432 17.04105 7.006432 17.18655 C 7.006432 17.33253 6.888435 17.45056 6.742859 17.45056 L 6.742859 17.45056 Z" fill="#000000" fill-opacity="1" stroke="none" stroke-opacity="1" stroke-width="0.458611" stroke-linecap="round" stroke-linejoin="round"/>
<path d="M 8.383076 11.32186 C 8.338066 11.32186 8.292645 11.31017 8.251286 11.28622 L 6.768799 10.4302 C 6.642685 10.35799 6.599701 10.1967 6.672287 10.07059 C 6.74527 9.944473 6.906258 9.901039 7.032368 9.97403 L 8.514862 10.83004 C 8.640972 10.90217 8.683956 11.06363 8.61137 11.18974 C 8.562305 11.27405 8.473904 11.32186 8.383076 11.32186 L 8.383076 11.32186 Z" fill="#000000" fill-opacity="1" stroke="none" stroke-opacity="1" stroke-width="0.458611" stroke-linecap="round" stroke-linejoin="round"/>
<path d="M 12.87274 6.835472 C 12.78191 6.835472 12.69311 6.788048 12.64445 6.703743 L 11.78844 5.221146 C 11.71546 5.095116 11.75884 4.933762 11.88454 4.861137 C 12.01065 4.787666 12.17205 4.831497 12.24503 4.957237 L 13.10104 6.440125 C 13.17363 6.565857 13.13064 6.727615 13.00453 6.799835 C 12.96317 6.824158 12.91775 6.835472 12.87274 6.835472 L 12.87274 6.835472 Z" fill="#000000" fill-opacity="1" stroke="none" stroke-opacity="1" stroke-width="0.458611" stroke-linecap="round" stroke-linejoin="round"/>
<path d="M 18.58191 21.35168 C 18.33293 21.35168 18.05638 21.27091 17.75834 21.0374 C 17.28878 20.67123 16.79285 20.85122 16.28436 21.0873 C 16.09742 21.17406 15.96241 21.23726 15.8298 21.23726 C 15.68464 21.23726 15.56664 21.11884 15.56664 20.97334 C 15.56664 20.8306 15.68018 20.71379 15.8221 20.71017 C 15.86305 20.702 15.97821 20.6485 16.06256 20.60963 C 16.50211 20.40567 17.3196 20.02525 18.08315 20.62256 C 18.52554 20.96764 18.82277 20.81073 19.19987 20.61001 C 19.40749 20.4993 19.62242 20.38535 19.86166 20.37565 C 20.44719 20.35008 21.49093 20.77908 21.60771 20.8286 C 21.74194 20.88449 21.80478 21.03941 21.74843 21.17321 C 21.69205 21.3074 21.53757 21.37109 21.40335 21.31396 C 21.11544 21.19307 20.28377 20.87402 19.88558 20.90197 C 19.76394 20.90681 19.61024 20.98874 19.44723 21.07551 C 19.22137 21.19554 18.92779 21.35168 18.58191 21.35168 L 18.58191 21.35168 Z" fill="#000000" fill-opacity="1" stroke="none" stroke-opacity="1" stroke-width="0.458611" stroke-linecap="round" stroke-linejoin="round"/>
</svg>