<?xml version="1.0" encoding="utf-8"?>
<!DOCTYPE svg PUBLIC "-//W3C//DTD SVG 1.1//EN" "http://www.w3.org/Graphics/SVG/1.1/DTD/svg11.dtd">
<!-- exported from Silhouette Studio® Business Edition V4.2.471ssbe -->
<svg version="1.1" xmlns="http://www.w3.org/2000/svg" xmlns:xlink="http://www.w3.org/1999/xlink" width="38mm" height="38mm" viewBox="0 0 38 38">
<defs/>
<path d="M 23.01436 14.80324 L 29.58084 22.62886 C 36.25169 23.09724 36.80962 31.03975 31.95941 33.43367 C 28.3446 35.21783 24.43626 33.0648 23.72668 28.79836 L 13.71992 28.79836 C 12.87022 33.92677 8.440048 34.5392 6.088715 33.69455 C 0.6838837 31.75302 1.109573 23.60806 7.268524 22.61782 L 14.0871 14.49171 C 14.17624 14.56198 14.33656 14.84103 14.37695 14.73494 C 14.38799 14.70601 14.28383 14.63922 14.30888 14.6574 C 11.81009 11.30692 13.36812 8.2659 14.6763 6.957741 C 17.1272 4.506874 21.03345 4.807495 23.14333 7.364853 C 24.76357 9.328712 25.09218 12.27388 23.01436 14.80324 Z M 4.286194 31.44906 C 8.306244 35.40388 11.65536 31.54221 11.74994 31.44913 C 10.1837 30.11617 7.559113 28.6923 4.286194 31.44906 Z M 9.782227 26.58538 C 9.772263 24.44137 6.491409 24.30579 6.265533 26.40643 C 6.002853 28.84939 9.794006 29.12065 9.782227 26.58538 Z M 7.238892 29.1124 C 3.970474 27.50966 5.568298 24.0231 8.018021 24.0204 C 10.51347 24.01765 12.06377 27.50709 8.796692 29.11234 C 10.60635 29.48124 11.11023 29.77813 12.23729 30.75435 C 13.84261 27.34344 12.07788 25.31358 11.12547 24.5229 C 8.833374 22.62005 6.260452 23.47599 4.976227 24.4957 C 3.624146 25.56929 2.335495 27.65765 3.798615 30.75404 C 4.94014 29.76894 5.445313 29.47431 7.238892 29.1124 Z M 28.64908 29.11224 C 25.20248 27.42453 27.14925 24.20148 29.18584 24.03125 C 31.75682 23.81636 33.64882 27.44358 30.20833 29.11227 C 31.6718 29.39572 32.3096 29.60836 33.64809 30.75384 C 35.78513 26.27773 32.20464 23.72507 30.05043 23.44517 C 26.61157 22.9983 23.06807 26.46656 25.20935 30.75414 C 26.31708 29.80791 26.86931 29.45556 28.64908 29.11224 Z M 13.72015 27.79639 L 23.72646 27.79639 C 23.88991 26.80244 24.34113 23.56911 28.33981 22.70864 L 22.28537 15.49323 C 20.14577 17.0736 17.32648 17.36219 14.81038 15.18855 L 8.596664 22.59382 C 10.81036 22.93094 13.11674 24.11344 13.72015 27.79639 Z M 22.94556 13.46586 C 24.20946 11.04768 23.54663 8.650421 21.83328 7.235237 C 17.87794 3.968193 11.83084 8.352135 14.5054 13.46641 C 15.41606 12.65421 16.22479 12.10821 17.94728 11.82507 C 14.84044 10.53188 16.09315 6.73333 18.72581 6.733391 C 21.45004 6.733452 22.54742 10.55827 19.504 11.82511 C 21.39342 12.13597 22.21169 12.81216 22.94556 13.46586 Z M 31.19427 26.58777 C 31.18176 24.47367 27.90549 24.23898 27.67555 26.40356 C 27.41086 28.89519 31.20903 29.07771 31.19427 26.58777 Z M 33.1602 31.44922 C 29.22423 28.14121 26.27669 30.95316 25.69676 31.44888 C 29.36006 35.05653 32.40317 32.19327 33.1602 31.44922 Z M 14.99315 14.16148 C 17.14143 16.46757 20.24152 16.54015 22.45775 14.16132 C 18.55165 10.61621 15.04225 14.11685 14.99315 14.16148 Z M 16.96252 9.338463 C 16.96251 11.54594 20.25378 11.73033 20.48048 9.518784 C 20.72633 7.120354 16.96254 6.880493 16.96252 9.338463 Z" fill="#000000" fill-opacity="1" stroke="none" stroke-opacity="1" stroke-width="0.1" stroke-linecap="butt" stroke-linejoin="miter"/>
</svg>